<?xml version="1.0" encoding="utf-8"?>
<svg viewBox="1.259 45.752 495.918 396.967" xmlns="http://www.w3.org/2000/svg">
  <g style="" transform="matrix(0.775326, 0, 0, 0.775326, 53.445824, 50.612831)">
    <path d="M 220.315 41.73 C 220.315 15.23 241.815 -6.27 268.315 -6.27 L 364.315 -6.27 C 390.815 -6.27 412.315 15.23 412.315 41.73 L 412.315 185.73 L 452.315 185.73 L 452.315 113.73 C 452.315 100.43 463.015 89.73 476.315 89.73 C 489.615 89.73 500.315 100.43 500.315 113.73 L 500.315 185.73 L 524.315 185.73 C 550.815 185.73 572.315 207.23 572.315 233.73 L 572.315 457.73 C 572.315 484.23 550.815 505.73 524.315 505.73 L 364.315 505.73 L 268.315 505.73 C 241.815 505.73 220.315 484.23 220.315 457.73 L 220.315 41.73 Z M 284.315 73.73 L 284.315 105.73 C 284.315 114.53 291.515 121.73 300.315 121.73 L 332.315 121.73 C 341.115 121.73 348.315 114.53 348.315 105.73 L 348.315 73.73 C 348.315 64.93 341.115 57.73 332.315 57.73 L 300.315 57.73 C 291.515 57.73 284.315 64.93 284.315 73.73 Z M 300.315 153.73 C 291.515 153.73 284.315 160.93 284.315 169.73 L 284.315 201.73 C 284.315 210.53 291.515 217.73 300.315 217.73 L 332.315 217.73 C 341.115 217.73 348.315 210.53 348.315 201.73 L 348.315 169.73 C 348.315 160.93 341.115 153.73 332.315 153.73 L 300.315 153.73 Z M 284.315 265.73 L 284.315 297.73 C 284.315 306.53 291.515 313.73 300.315 313.73 L 332.315 313.73 C 341.115 313.73 348.315 306.53 348.315 297.73 L 348.315 265.73 C 348.315 256.93 341.115 249.73 332.315 249.73 L 300.315 249.73 C 291.515 249.73 284.315 256.93 284.315 265.73 Z M 460.315 249.73 C 451.515 249.73 444.315 256.93 444.315 265.73 L 444.315 297.73 C 444.315 306.53 451.515 313.73 460.315 313.73 L 492.315 313.73 C 501.115 313.73 508.315 306.53 508.315 297.73 L 508.315 265.73 C 508.315 256.93 501.115 249.73 492.315 249.73 L 460.315 249.73 Z M 444.315 361.73 L 444.315 393.73 C 444.315 402.53 451.515 409.73 460.315 409.73 L 492.315 409.73 C 501.115 409.73 508.315 402.53 508.315 393.73 L 508.315 361.73 C 508.315 352.93 501.115 345.73 492.315 345.73 L 460.315 345.73 C 451.515 345.73 444.315 352.93 444.315 361.73 Z" style=""/>
    <path d="M -22.553 -12.543 L 57.447 67.457 C 69.947 79.957 69.947 100.257 57.447 112.757 L -22.553 192.757 C -35.053 205.257 -55.353 205.257 -67.853 192.757 C -80.353 180.257 -80.353 159.957 -67.853 147.457 L -42.453 122.057 L -157.154 122.057 C -174.854 122.057 -189.154 107.757 -189.154 90.057 C -189.154 72.357 -174.854 58.057 -157.154 58.057 L -42.453 58.057 L -67.853 32.657 C -80.353 20.157 -80.353 -0.143 -67.853 -12.643 C -55.353 -25.143 -35.053 -25.143 -22.553 -12.643 L -22.553 -12.543 Z" style="" transform="matrix(-1, 0, 0, -1, -0.487472, 339.70881)" />
  </g>
</svg>