<?xml version="1.0" encoding="utf-8"?>
<svg viewBox="0 0 448 512" xmlns="http://www.w3.org/2000/svg">
  <path d="M 128 0 C 145.7 0 160 14.3 160 32 L 160 64 L 288 64 L 288 32 C 288 14.3 302.3 0 320 0 C 337.7 0 352 14.3 352 32 L 352 64 L 400 64 C 426.5 64 448 85.5 448 112 L 448 160 L 0 160 L 0 112 C 0 85.5 21.5 64 48 64 L 96 64 L 96 32 C 96 14.3 110.3 0 128 0 Z M 0 192 L 448 192 L 448 464 C 448 490.5 426.5 512 400 512 L 48 512 C 21.5 512 0 490.5 0 464 Z M 169.32 337.444 C 167.445 332.952 164.984 329.046 161.937 325.726 C 158.89 322.405 155.414 319.554 151.507 317.171 C 147.601 314.788 143.617 312.659 139.554 310.784 C 135.491 308.909 131.507 307.132 127.601 305.452 C 123.695 303.773 120.199 301.976 117.113 300.062 C 114.027 298.147 111.566 295.96 109.73 293.499 C 107.894 291.038 106.976 288.128 106.976 284.769 C 106.976 282.503 107.386 280.354 108.206 278.323 C 109.027 276.292 110.277 274.553 111.956 273.108 C 113.636 271.663 115.726 270.53 118.226 269.71 C 120.726 268.889 123.656 268.479 127.015 268.479 C 131.312 268.479 135.257 269.007 138.851 270.062 C 142.445 271.117 145.609 272.288 148.343 273.577 C 151.078 274.866 153.382 276.058 155.257 277.151 C 157.132 278.245 158.5 278.792 159.359 278.792 C 160.218 278.792 160.902 278.558 161.41 278.089 C 161.917 277.62 162.308 276.878 162.581 275.862 C 162.855 274.847 163.05 273.558 163.167 271.995 C 163.284 270.432 163.343 268.518 163.343 266.253 C 163.343 264.222 163.304 262.522 163.226 261.155 C 163.148 259.788 163.011 258.655 162.816 257.757 C 162.621 256.858 162.386 256.136 162.113 255.589 C 161.84 255.042 161.312 254.378 160.531 253.597 C 159.75 252.816 158.148 251.839 155.726 250.667 C 153.304 249.495 150.531 248.44 147.406 247.503 C 144.281 246.566 140.921 245.823 137.328 245.276 C 133.734 244.729 130.14 244.456 126.546 244.456 C 119.593 244.456 113.011 245.354 106.8 247.151 C 100.589 248.948 95.199 251.663 90.628 255.296 C 86.058 258.929 82.425 263.499 79.73 269.007 C 77.035 274.515 75.687 280.902 75.687 288.167 C 75.687 294.495 76.624 299.925 78.499 304.456 C 80.374 308.987 82.816 312.913 85.824 316.233 C 88.831 319.554 92.249 322.405 96.078 324.788 C 99.906 327.171 103.851 329.3 107.913 331.175 C 111.976 333.05 115.921 334.827 119.749 336.507 C 123.578 338.186 126.996 339.983 130.003 341.897 C 133.011 343.812 135.453 345.999 137.328 348.46 C 139.203 350.921 140.14 353.87 140.14 357.308 C 140.14 360.277 139.593 362.972 138.499 365.394 C 137.406 367.815 135.824 369.846 133.753 371.487 C 131.683 373.128 129.164 374.397 126.195 375.296 C 123.226 376.195 119.867 376.644 116.117 376.644 C 110.414 376.644 105.394 375.999 101.058 374.71 C 96.722 373.421 92.992 371.995 89.867 370.433 C 86.742 368.87 84.183 367.444 82.191 366.155 C 80.199 364.866 78.656 364.222 77.562 364.222 C 76.781 364.222 76.097 364.437 75.511 364.866 C 74.925 365.296 74.456 366.019 74.105 367.034 C 73.754 368.05 73.5 369.378 73.343 371.019 C 73.187 372.659 73.109 374.69 73.109 377.112 C 73.109 380.706 73.324 383.46 73.753 385.374 C 74.183 387.288 74.906 388.753 75.921 389.769 C 76.937 390.784 78.597 391.956 80.902 393.284 C 83.207 394.612 86.078 395.882 89.515 397.093 C 92.952 398.304 96.917 399.339 101.41 400.198 C 105.902 401.057 110.765 401.487 115.999 401.487 C 123.734 401.487 130.999 400.471 137.796 398.44 C 144.593 396.409 150.531 393.382 155.609 389.358 C 160.687 385.335 164.71 380.315 167.679 374.3 C 170.648 368.284 172.132 361.292 172.132 353.323 C 172.132 347.23 171.195 341.937 169.32 337.444 Z M 282.983 324.847 C 282.983 317.659 282.124 311.448 280.405 306.214 C 278.686 300.979 275.952 296.702 272.202 293.382 C 268.452 290.061 263.667 287.6 257.846 285.999 C 252.026 284.398 245.014 283.597 236.811 283.597 C 232.202 283.597 227.729 283.968 223.393 284.71 C 219.057 285.452 215.053 286.409 211.382 287.581 C 207.71 288.753 204.507 290.023 201.772 291.39 C 199.038 292.757 197.124 294.007 196.03 295.14 C 194.936 296.273 194.194 297.542 193.803 298.948 C 193.413 300.355 193.218 302.269 193.218 304.69 C 193.218 306.487 193.335 308.128 193.569 309.612 C 193.804 311.097 194.136 312.347 194.565 313.362 C 194.995 314.378 195.542 315.159 196.206 315.706 C 196.87 316.253 197.632 316.526 198.491 316.526 C 199.741 316.526 201.362 315.979 203.354 314.886 C 205.347 313.792 207.827 312.581 210.796 311.253 C 213.765 309.925 217.183 308.714 221.05 307.62 C 224.917 306.526 229.311 305.979 234.233 305.979 C 237.983 305.979 241.128 306.37 243.667 307.151 C 246.206 307.932 248.237 309.143 249.761 310.784 C 251.284 312.425 252.378 314.476 253.042 316.937 C 253.706 319.398 254.038 322.269 254.038 325.55 L 254.038 331.878 L 243.843 331.878 C 234.546 331.878 226.381 332.581 219.35 333.987 C 212.319 335.394 206.44 337.562 201.714 340.491 C 196.987 343.421 193.433 347.132 191.05 351.624 C 188.667 356.116 187.475 361.409 187.475 367.503 C 187.475 373.128 188.413 378.05 190.288 382.269 C 192.163 386.488 194.799 390.023 198.198 392.874 C 201.597 395.725 205.62 397.874 210.268 399.319 C 214.917 400.764 220.014 401.487 225.561 401.487 C 232.28 401.487 238.393 400.198 243.901 397.62 C 249.409 395.042 254.311 391.448 258.608 386.839 L 258.608 395.159 C 258.608 396.253 258.94 397.112 259.604 397.737 C 260.268 398.362 261.401 398.812 263.003 399.085 C 264.604 399.358 267.163 399.495 270.678 399.495 C 273.959 399.495 276.44 399.358 278.12 399.085 C 279.799 398.812 281.03 398.362 281.811 397.737 C 282.592 397.112 282.983 396.253 282.983 395.159 Z M 254.038 368.206 C 250.444 372.269 246.909 375.355 243.432 377.464 C 239.956 379.573 236.148 380.628 232.007 380.628 C 227.085 380.628 223.237 379.378 220.464 376.878 C 217.69 374.378 216.303 370.94 216.303 366.565 C 216.303 363.987 216.791 361.702 217.768 359.71 C 218.745 357.718 220.288 356.019 222.397 354.612 C 224.506 353.206 227.241 352.151 230.6 351.448 C 233.959 350.745 238.022 350.394 242.788 350.394 L 254.038 350.394 Z M 371.751 379.104 C 371.556 377.698 371.341 376.585 371.106 375.765 C 370.871 374.944 370.539 374.397 370.11 374.124 C 369.68 373.851 369.231 373.714 368.762 373.714 C 368.215 373.714 367.61 373.851 366.946 374.124 C 366.282 374.397 365.462 374.71 364.485 375.062 C 363.508 375.413 362.395 375.726 361.145 375.999 C 359.895 376.272 358.489 376.409 356.926 376.409 C 352.317 376.409 349.114 374.983 347.317 372.132 C 345.52 369.28 344.622 365.003 344.622 359.3 L 344.622 310.198 L 367.473 310.198 C 368.958 310.198 370.091 309.28 370.872 307.444 C 371.653 305.608 372.043 302.542 372.043 298.245 C 372.043 295.98 371.946 294.066 371.751 292.503 C 371.556 290.94 371.263 289.71 370.872 288.812 C 370.481 287.913 369.993 287.269 369.407 286.878 C 368.821 286.487 368.137 286.292 367.356 286.292 L 344.622 286.292 L 344.622 262.972 C 344.622 262.191 344.387 261.487 343.918 260.862 C 343.449 260.237 342.668 259.71 341.575 259.28 C 340.481 258.851 338.977 258.538 337.063 258.343 C 335.149 258.148 332.747 258.05 329.856 258.05 C 327.043 258.05 324.68 258.148 322.766 258.343 C 320.852 258.538 319.329 258.851 318.196 259.28 C 317.063 259.71 316.282 260.237 315.852 260.862 C 315.423 261.487 315.208 262.191 315.208 262.972 L 315.208 286.292 L 302.786 286.292 C 302.005 286.292 301.321 286.487 300.735 286.878 C 300.149 287.269 299.661 287.913 299.27 288.812 C 298.879 289.71 298.586 290.94 298.391 292.503 C 298.196 294.066 298.098 295.98 298.098 298.245 C 298.098 302.542 298.489 305.608 299.27 307.444 C 300.051 309.28 301.184 310.198 302.668 310.198 L 315.208 310.198 L 315.208 363.753 C 315.208 370.159 315.872 375.706 317.2 380.394 C 318.528 385.081 320.598 388.968 323.411 392.054 C 326.223 395.14 329.778 397.425 334.075 398.909 C 338.372 400.394 343.45 401.136 349.309 401.136 C 351.496 401.136 353.664 401.019 355.813 400.784 C 357.962 400.55 359.954 400.218 361.79 399.788 C 363.625 399.359 365.227 398.851 366.594 398.265 C 367.961 397.679 368.997 397.015 369.7 396.272 C 370.403 395.53 370.969 394.241 371.399 392.405 C 371.828 390.569 372.043 387.932 372.043 384.495 C 372.043 382.308 371.946 380.511 371.751 379.104 Z"/>
</svg>