<?xml version="1.0" encoding="utf-8"?>
<svg viewBox="0 0 448 512" xmlns="http://www.w3.org/2000/svg">
  <path d="M 128 0 C 145.7 0 160 14.3 160 32 L 160 64 L 288 64 L 288 32 C 288 14.3 302.3 0 320 0 C 337.7 0 352 14.3 352 32 L 352 64 L 400 64 C 426.5 64 448 85.5 448 112 L 448 160 L 0 160 L 0 112 C 0 85.5 21.5 64 48 64 L 96 64 L 96 32 C 96 14.3 110.3 0 128 0 Z M 0 192 L 448 192 L 448 464 C 448 490.5 426.5 512 400 512 L 48 512 C 21.5 512 0 490.5 0 464 Z M 189.652 256.887 C 189.457 255.246 189.144 253.938 188.714 252.961 C 188.285 251.984 187.796 251.281 187.249 250.852 C 186.702 250.422 186.077 250.207 185.374 250.207 L 114.007 250.207 C 111.429 250.207 109.261 250.969 107.503 252.493 C 105.745 254.016 104.866 256.497 104.866 259.934 L 104.866 397.395 C 104.866 398.254 105.12 398.996 105.628 399.621 C 106.136 400.246 106.976 400.774 108.148 401.203 C 109.32 401.633 110.902 401.965 112.894 402.2 C 114.886 402.434 117.366 402.551 120.335 402.551 C 123.382 402.551 125.882 402.434 127.835 402.2 C 129.788 401.965 131.37 401.633 132.581 401.203 C 133.792 400.774 134.632 400.246 135.101 399.621 C 135.57 398.996 135.804 398.254 135.804 397.395 L 135.804 340.91 L 182.327 340.91 C 183.03 340.91 183.655 340.695 184.202 340.266 C 184.749 339.836 185.238 339.113 185.667 338.098 C 186.097 337.083 186.41 335.794 186.605 334.231 C 186.8 332.668 186.898 330.715 186.898 328.371 C 186.898 326.028 186.8 324.075 186.605 322.512 C 186.41 320.949 186.097 319.699 185.667 318.762 C 185.238 317.825 184.749 317.161 184.202 316.77 C 183.655 316.379 183.03 316.184 182.327 316.184 L 135.804 316.184 L 135.804 275.403 L 185.374 275.403 C 186.077 275.403 186.702 275.169 187.249 274.7 C 187.796 274.231 188.285 273.527 188.714 272.59 C 189.144 271.653 189.457 270.383 189.652 268.782 C 189.847 267.18 189.945 265.207 189.945 262.864 C 189.945 260.52 189.847 258.528 189.652 256.887 Z M 280.289 296.379 C 280.211 294.738 280.094 293.508 279.937 292.688 C 279.781 291.867 279.605 291.223 279.41 290.754 C 279.215 290.285 278.902 289.856 278.473 289.465 C 278.043 289.074 277.359 288.703 276.422 288.352 C 275.485 288.001 274.391 287.688 273.141 287.414 C 271.891 287.141 270.68 286.945 269.508 286.828 C 268.336 286.711 267.242 286.653 266.226 286.653 C 264.039 286.653 261.851 286.946 259.664 287.532 C 257.477 288.117 255.289 289.152 253.101 290.637 C 250.914 292.122 248.609 294.133 246.187 296.672 C 243.766 299.211 241.188 302.434 238.453 306.34 L 238.453 293.332 C 238.453 292.551 238.258 291.867 237.867 291.282 C 237.476 290.696 236.832 290.208 235.933 289.817 C 235.035 289.426 233.766 289.133 232.125 288.938 C 230.484 288.743 228.414 288.645 225.914 288.645 C 223.492 288.645 221.48 288.743 219.879 288.938 C 218.277 289.133 216.968 289.426 215.953 289.817 C 214.938 290.208 214.235 290.696 213.844 291.282 C 213.453 291.867 213.258 292.551 213.258 293.332 L 213.258 397.864 C 213.258 398.645 213.492 399.328 213.961 399.914 C 214.43 400.5 215.23 400.988 216.363 401.379 C 217.496 401.77 219 402.063 220.875 402.258 C 222.75 402.453 225.132 402.551 228.023 402.551 C 230.914 402.551 233.297 402.453 235.172 402.258 C 237.047 402.063 238.55 401.77 239.683 401.379 C 240.816 400.988 241.617 400.5 242.086 399.914 C 242.555 399.328 242.789 398.645 242.789 397.864 L 242.789 332.707 C 244.976 329.27 247.027 326.379 248.941 324.035 C 250.855 321.692 252.691 319.817 254.449 318.41 C 256.207 317.004 257.906 315.969 259.547 315.305 C 261.188 314.641 262.828 314.309 264.469 314.309 C 265.875 314.309 267.164 314.446 268.336 314.719 C 269.508 314.992 270.582 315.285 271.558 315.598 C 272.535 315.911 273.414 316.204 274.195 316.477 C 274.976 316.75 275.68 316.887 276.305 316.887 C 277.086 316.887 277.73 316.692 278.238 316.301 C 278.746 315.91 279.156 315.207 279.469 314.192 C 279.781 313.176 280.015 311.77 280.172 309.973 C 280.328 308.176 280.406 305.872 280.406 303.059 C 280.406 300.246 280.367 298.02 280.289 296.379 Z M 328.095 293.567 C 328.095 292.786 327.86 292.102 327.391 291.516 C 326.922 290.93 326.122 290.422 324.989 289.993 C 323.856 289.563 322.352 289.231 320.477 288.996 C 318.602 288.762 316.22 288.645 313.329 288.645 C 310.438 288.645 308.056 288.762 306.181 288.996 C 304.306 289.231 302.802 289.563 301.669 289.993 C 300.536 290.422 299.735 290.93 299.266 291.516 C 298.797 292.102 298.563 292.786 298.563 293.567 L 298.563 397.864 C 298.563 398.645 298.797 399.328 299.266 399.914 C 299.735 400.5 300.536 400.988 301.669 401.379 C 302.802 401.77 304.306 402.063 306.181 402.258 C 308.056 402.453 310.438 402.551 313.329 402.551 C 316.22 402.551 318.602 402.453 320.477 402.258 C 322.352 402.063 323.856 401.77 324.989 401.379 C 326.122 400.988 326.922 400.5 327.391 399.914 C 327.86 399.328 328.095 398.645 328.095 397.864 Z M 326.806 246.047 C 324.462 243.82 320.009 242.707 313.446 242.707 C 306.805 242.707 302.294 243.859 299.911 246.164 C 297.528 248.469 296.337 252.59 296.337 258.528 C 296.337 264.231 297.489 268.176 299.794 270.364 C 302.099 272.551 306.571 273.645 313.212 273.645 C 319.775 273.645 324.267 272.512 326.688 270.246 C 329.11 267.981 330.321 263.879 330.321 257.942 C 330.321 252.239 329.149 248.274 326.806 246.047 Z"/>
</svg>