<?xml version="1.0" encoding="utf-8"?>
<svg viewBox="0 0 448 512" xmlns="http://www.w3.org/2000/svg">
  <path d="M 128 0 C 145.7 0 160 14.3 160 32 L 160 64 L 288 64 L 288 32 C 288 14.3 302.3 0 320 0 C 337.7 0 352 14.3 352 32 L 352 64 L 400 64 C 426.5 64 448 85.5 448 112 L 448 160 L 0 160 L 0 112 C 0 85.5 21.5 64 48 64 L 96 64 L 96 32 C 96 14.3 110.3 0 128 0 Z M 0 192 L 448 192 L 448 464 C 448 490.5 426.5 512 400 512 L 48 512 C 21.5 512 0 490.5 0 464 Z M 148.18 338.494 C 146.305 334.002 143.844 330.096 140.797 326.776 C 137.75 323.455 134.274 320.604 130.367 318.221 C 126.461 315.838 122.477 313.709 118.414 311.834 C 114.351 309.959 110.367 308.182 106.461 306.502 C 102.555 304.823 99.059 303.026 95.973 301.112 C 92.887 299.197 90.426 297.01 88.59 294.549 C 86.754 292.088 85.836 289.178 85.836 285.819 C 85.836 283.553 86.246 281.404 87.066 279.373 C 87.887 277.342 89.137 275.603 90.816 274.158 C 92.496 272.713 94.586 271.58 97.086 270.76 C 99.586 269.94 102.516 269.53 105.875 269.53 C 110.172 269.53 114.117 270.057 117.711 271.112 C 121.305 272.167 124.469 273.338 127.203 274.627 C 129.938 275.916 132.242 277.108 134.117 278.201 C 135.992 279.295 137.36 279.842 138.219 279.842 C 139.078 279.842 139.762 279.608 140.27 279.139 C 140.777 278.67 141.168 277.928 141.441 276.912 C 141.715 275.897 141.91 274.608 142.027 273.045 C 142.144 271.482 142.203 269.568 142.203 267.303 C 142.203 265.272 142.164 263.572 142.086 262.205 C 142.008 260.838 141.871 259.706 141.676 258.807 C 141.481 257.908 141.246 257.186 140.973 256.639 C 140.7 256.092 140.172 255.428 139.391 254.647 C 138.61 253.866 137.008 252.889 134.586 251.717 C 132.164 250.545 129.391 249.49 126.266 248.553 C 123.141 247.616 119.781 246.873 116.188 246.326 C 112.594 245.779 109 245.506 105.406 245.506 C 98.453 245.506 91.871 246.404 85.66 248.201 C 79.449 249.998 74.059 252.713 69.488 256.346 C 64.918 259.979 61.285 264.549 58.59 270.057 C 55.895 275.565 54.547 281.952 54.547 289.217 C 54.547 295.545 55.484 300.975 57.359 305.506 C 59.234 310.037 61.676 313.963 64.684 317.283 C 67.691 320.604 71.109 323.455 74.938 325.838 C 78.766 328.221 82.711 330.35 86.773 332.225 C 90.836 334.1 94.781 335.877 98.609 337.557 C 102.438 339.236 105.856 341.033 108.863 342.947 C 111.871 344.862 114.313 347.049 116.188 349.51 C 118.063 351.971 119 354.92 119 358.358 C 119 361.327 118.453 364.022 117.359 366.444 C 116.266 368.865 114.684 370.896 112.613 372.537 C 110.543 374.178 108.024 375.447 105.055 376.346 C 102.086 377.245 98.727 377.694 94.977 377.694 C 89.274 377.694 84.254 377.049 79.918 375.76 C 75.582 374.471 71.852 373.045 68.727 371.483 C 65.602 369.92 63.043 368.494 61.051 367.205 C 59.059 365.916 57.516 365.272 56.422 365.272 C 55.641 365.272 54.957 365.487 54.371 365.916 C 53.785 366.346 53.316 367.069 52.965 368.084 C 52.614 369.1 52.36 370.428 52.203 372.069 C 52.047 373.71 51.969 375.741 51.969 378.162 C 51.969 381.756 52.184 384.51 52.613 386.424 C 53.043 388.338 53.766 389.803 54.781 390.819 C 55.797 391.834 57.457 393.006 59.762 394.334 C 62.067 395.662 64.938 396.932 68.375 398.143 C 71.812 399.354 75.777 400.389 80.27 401.248 C 84.762 402.107 89.625 402.537 94.859 402.537 C 102.594 402.537 109.859 401.521 116.656 399.49 C 123.453 397.459 129.391 394.432 134.469 390.408 C 139.547 386.385 143.57 381.365 146.539 375.35 C 149.508 369.334 150.992 362.342 150.992 354.373 C 150.992 348.28 150.055 342.987 148.18 338.494 Z M 271.921 291.326 C 271.921 290.545 271.687 289.862 271.218 289.276 C 270.749 288.69 269.968 288.202 268.874 287.811 C 267.781 287.42 266.296 287.127 264.421 286.932 C 262.546 286.737 260.164 286.639 257.273 286.639 C 254.382 286.639 251.999 286.737 250.124 286.932 C 248.249 287.127 246.746 287.42 245.613 287.811 C 244.48 288.202 243.698 288.69 243.269 289.276 C 242.839 289.862 242.624 290.545 242.624 291.326 L 242.624 360.819 C 238.327 366.053 234.285 370.037 230.496 372.772 C 226.707 375.506 222.937 376.873 219.187 376.873 C 216.218 376.873 213.621 376.307 211.394 375.174 C 209.167 374.041 207.331 372.44 205.886 370.369 C 204.441 368.299 203.366 365.819 202.663 362.928 C 201.96 360.037 201.609 355.858 201.609 350.389 L 201.609 291.326 C 201.609 290.545 201.375 289.862 200.906 289.276 C 200.437 288.69 199.636 288.202 198.503 287.811 C 197.37 287.42 195.867 287.127 193.992 286.932 C 192.117 286.737 189.734 286.639 186.843 286.639 C 184.03 286.639 181.667 286.737 179.753 286.932 C 177.839 287.127 176.316 287.42 175.183 287.811 C 174.05 288.202 173.269 288.69 172.839 289.276 C 172.41 289.862 172.195 290.545 172.195 291.326 L 172.195 355.311 C 172.195 363.28 172.839 369.94 174.128 375.291 C 175.417 380.643 177.566 385.35 180.574 389.412 C 183.581 393.475 187.527 396.678 192.41 399.022 C 197.293 401.365 203.328 402.537 210.515 402.537 C 216.921 402.537 223.112 400.975 229.089 397.85 C 235.066 394.725 240.945 390.037 246.726 383.787 L 246.726 395.858 C 246.726 396.639 246.921 397.323 247.312 397.908 C 247.703 398.494 248.367 398.982 249.304 399.373 C 250.241 399.764 251.511 400.057 253.113 400.252 C 254.714 400.447 256.804 400.545 259.382 400.545 C 261.804 400.545 263.816 400.447 265.417 400.252 C 267.019 400.057 268.308 399.764 269.285 399.373 C 270.261 398.982 270.944 398.494 271.335 397.908 C 271.726 397.323 271.921 396.639 271.921 395.858 Z M 401.416 331.287 C 401.416 323.709 400.752 317.225 399.423 311.834 C 398.095 306.443 395.927 301.736 392.92 297.713 C 389.912 293.69 385.967 290.506 381.084 288.162 C 376.201 285.819 370.204 284.647 363.095 284.647 C 356.611 284.647 350.381 286.209 344.404 289.334 C 338.427 292.459 332.548 297.147 326.767 303.397 L 326.767 291.326 C 326.767 290.545 326.572 289.862 326.181 289.276 C 325.79 288.69 325.146 288.202 324.248 287.811 C 323.349 287.42 322.08 287.127 320.439 286.932 C 318.798 286.737 316.728 286.639 314.228 286.639 C 311.806 286.639 309.794 286.737 308.193 286.932 C 306.592 287.127 305.283 287.42 304.267 287.811 C 303.252 288.202 302.549 288.69 302.158 289.276 C 301.767 289.862 301.572 290.545 301.572 291.326 L 301.572 395.858 C 301.572 396.639 301.806 397.323 302.275 397.908 C 302.744 398.494 303.544 398.982 304.677 399.373 C 305.81 399.764 307.314 400.057 309.189 400.252 C 311.064 400.447 313.447 400.545 316.338 400.545 C 319.228 400.545 321.611 400.447 323.486 400.252 C 325.361 400.057 326.865 399.764 327.998 399.373 C 329.131 398.982 329.931 398.494 330.4 397.908 C 330.869 397.323 331.103 396.639 331.103 395.858 L 331.103 326.365 C 335.244 321.131 339.228 317.147 343.056 314.412 C 346.884 311.678 350.673 310.311 354.423 310.311 C 357.392 310.311 359.99 310.877 362.216 312.01 C 364.443 313.143 366.259 314.744 367.666 316.815 C 369.072 318.885 370.146 321.365 370.888 324.256 C 371.631 327.147 372.002 331.131 372.002 336.209 L 372.002 395.858 C 372.002 396.639 372.236 397.323 372.705 397.908 C 373.174 398.494 373.955 398.982 375.048 399.373 C 376.142 399.764 377.646 400.057 379.56 400.252 C 381.474 400.447 383.876 400.545 386.767 400.545 C 389.58 400.545 391.943 400.447 393.857 400.252 C 395.771 400.057 397.275 399.764 398.369 399.373 C 399.462 398.982 400.244 398.494 400.713 397.908 C 401.182 397.323 401.416 396.639 401.416 395.858 Z"/>
</svg>