<svg width="173.244" height="80.176" viewBox="0 0 173.244 80.176" xmlns="http://www.w3.org/2000/svg">
  <g id="svgGroup" stroke-linecap="round" fillRule="evenodd" font-size="9pt" stroke-width="0.25mm">
    <path d="M 153.516 11.328 L 165.527 6.152 A 114.876 114.876 0 0 1 170.753 21.968 Q 173.187 31.812 173.242 40.82 A 48.302 48.302 0 0 1 171.851 52.712 A 35.472 35.472 0 0 1 164.648 66.992 A 27.318 27.318 0 0 1 144.812 76.794 A 35.026 35.026 0 0 1 142.969 76.855 A 33.128 33.128 0 0 1 118.078 66.188 A 43.144 43.144 0 0 1 116.016 63.867 A 46.573 46.573 0 0 1 105.86 40.645 A 59.727 59.727 0 0 1 105.273 34.766 Q 105.176 33.301 105.176 31.836 Q 105.176 18.262 111.328 6.543 L 123.145 12.305 Q 118.164 21.582 118.164 31.836 A 42.057 42.057 0 0 0 119.922 44.214 A 35.558 35.558 0 0 0 125.195 54.785 A 27.399 27.399 0 0 0 130.785 60.416 A 20.394 20.394 0 0 0 142.969 64.453 A 15.601 15.601 0 0 0 150.13 62.86 Q 153.524 61.137 155.882 57.551 A 23.068 23.068 0 0 0 157.812 53.906 A 30.435 30.435 0 0 0 159.911 46.094 A 39.159 39.159 0 0 0 160.254 40.82 A 65.505 65.505 0 0 0 158.184 24.835 A 88.273 88.273 0 0 0 153.711 11.719 A 2.443 2.443 0 0 0 153.662 11.584 Q 153.611 11.458 153.561 11.384 A 0.389 0.389 0 0 0 153.516 11.328 Z M 65.039 35.742 L 104.102 68.848 L 94.727 77.93 L 64.355 52.051 L 63.281 80.176 L 50.488 78.906 L 51.953 41.504 L 33.301 25.684 L 42.578 16.699 L 52.539 25.293 L 53.418 5.957 L 66.211 7.324 L 65.039 35.742 Z M 29.492 18.164 L 27.246 80.176 L 14.453 78.906 L 16.113 28.418 A 76.306 76.306 0 0 1 12.483 30.19 Q 10.708 30.995 9.122 31.582 A 35.774 35.774 0 0 1 7.227 32.227 L 0 21.484 A 88.139 88.139 0 0 0 12.465 14.742 Q 21.765 8.63 27.441 0.879 A 11.379 11.379 0 0 1 27.771 0.36 A 9.03 9.03 0 0 1 28.027 0 L 35.254 10.645 A 61.67 61.67 0 0 1 31.379 15.975 A 52.423 52.423 0 0 1 29.492 18.164 Z M 69.531 28.125 L 91.211 5.566 L 100 14.941 L 78.418 37.5 L 69.531 28.125 Z" vector-effect="non-scaling-stroke"/>
  </g>
</svg>